<svg width="14" height="14" viewBox="0 0 14 14" fill="none" xmlns="http://www.w3.org/2000/svg">
<path d="M7.82485 4.4247C8.28043 4.88028 8.28043 5.61878 7.82485 6.07436C7.36927 6.52995 6.63077 6.52995 6.17518 6.07436C5.7196 5.61878 5.7196 4.88028 6.17518 4.4247C6.63077 3.96911 7.36927 3.96911 7.82485 4.4247" stroke="black" stroke-width="0.875" stroke-linecap="round" stroke-linejoin="round"/>
<path d="M3.79167 4.08301V6.41634" stroke="black" stroke-width="0.875" stroke-linecap="round" stroke-linejoin="round"/>
<path d="M10.2083 4.08301V6.41634" stroke="black" stroke-width="0.875" stroke-linecap="round" stroke-linejoin="round"/>
<path d="M7.00004 9.33301V12.2497" stroke="black" stroke-width="0.875" stroke-linecap="round" stroke-linejoin="round"/>
<path d="M7 12.2497L8.16667 11.083" stroke="black" stroke-width="0.875" stroke-linecap="round" stroke-linejoin="round"/>
<path d="M5.83337 11.083L7.00004 12.2497" stroke="black" stroke-width="0.875" stroke-linecap="round" stroke-linejoin="round"/>
<path d="M4.66667 8.75H2.91667C2.27208 8.75 1.75 8.22792 1.75 7.58333V2.91667C1.75 2.27208 2.27208 1.75 2.91667 1.75H11.0833C11.7279 1.75 12.25 2.27208 12.25 2.91667V7.58333C12.25 8.22792 11.7279 8.75 11.0833 8.75H9.33333" stroke="black" stroke-width="0.875" stroke-linecap="round" stroke-linejoin="round"/>
</svg>
